<?xml version="1.0" standalone="no"?>
<!DOCTYPE svg PUBLIC "-//W3C//DTD SVG 20010904//EN"
 "http://www.w3.org/TR/2001/REC-SVG-20010904/DTD/svg10.dtd">
<svg version="1.0" xmlns="http://www.w3.org/2000/svg"
 width="394.000000pt" height="394.000000pt" viewBox="0 0 394.000000 394.000000"
 preserveAspectRatio="xMidYMid meet">
<metadata>
Created by potrace 1.14, written by Peter Selinger 2001-2017
</metadata>
<g transform="translate(0.000000,394.000000) scale(0.100000,-0.100000)"
fill="#000000" stroke="none">
<path d="M1970 1973 l0 -1918 468 468 c257 257 471 467 477 467 5 0 63 -53
130 -118 198 -194 685 -664 765 -740 l75 -70 3 951 2 952 -482 482 -483 483
480 480 480 480 -958 0 -957 0 0 -1917z"/>
<path d="M530 525 l-475 -475 955 0 955 0 -475 475 c-261 261 -477 475 -480
475 -3 0 -219 -214 -480 -475z"/>
</g>
</svg>
